<svg width="24" height="24" viewBox="0 0 24 24" fill="none" xmlns="http://www.w3.org/2000/svg">
<path d="M0 12C0 5.3726 5.3726 0 12 0C18.6274 0 24 5.3726 24 12C24 18.6274 18.6274 24 12 24C5.3726 24 0 18.6274 0 12Z" fill="#958319"/>
<path d="M12.0188 4.80078L11.9223 5.12884V14.6483L12.0188 14.7446L16.4377 12.1327L12.0188 4.80078Z" fill="#343432"/>
<path d="M12.0188 4.80078L7.6 12.1327L12.0188 14.7447V10.1242V4.80078Z" fill="#010100"/>
<path d="M12.0188 15.5794L11.9644 15.6457V19.0368L12.0188 19.1957L16.4403 12.9688L12.0188 15.5794Z" fill="#31302D"/>
<path d="M12.0188 19.1957V15.5794L7.6 12.9688L12.0188 19.1957Z" fill="#010100"/>
<path d="M12.0188 14.7454L16.4376 12.1335L12.0188 10.125V14.7454Z" fill="#4D4D4B"/>
<path d="M7.60005 12.1335L12.0188 14.7454V10.125L7.60005 12.1335Z" fill="#2E2D2D"/>
</svg>
